<svg xmlns="http://www.w3.org/2000/svg" viewBox="0 0 32 32" width="32" height="32">
<path d="M 27,31 L 29,31 Z" fill="black" stroke="black" stroke-width="1"/><path d="M 0,31 L 2,31 Z" fill="black" stroke="black" stroke-width="1"/><path d="M 14,23 L 19,23 Z" fill="black" stroke="black" stroke-width="1"/><path d="M 8,23 L 10,25 L 12,25 L 13,26 L 20,26 L 21,25 L 23,25 L 24,26 L 23,27 L 24,27 L 24,26 L 23,25 L 21,25 L 20,26 L 13,26 L 12,25 L 10,25 Z" fill="black" stroke="black" stroke-width="1"/><path d="M 14,21 L 18,21 Z" fill="black" stroke="black" stroke-width="1"/><path d="M 31,13 L 30,14 L 30,16 L 29,17 L 29,19 L 28,20 L 28,21 L 27,22 L 27,25 L 28,26 L 29,26 L 30,27 L 28,29 L 25,29 L 24,30 L 23,30 L 22,31 L 21,31 L 20,30 L 18,30 L 18,31 L 19,30 L 20,31 L 22,31 L 23,30 L 24,31 L 24,30 L 25,29 L 28,29 L 29,28 L 31,30 L 30,29 L 30,26 L 31,25 L 30,24 L 31,25 L 30,26 L 29,26 L 27,24 L 27,23 L 28,22 L 28,21 L 29,20 L 29,17 L 30,16 L 30,15 L 31,14 Z" fill="black" stroke="black" stroke-width="1"/><path d="M 23,13 L 23,14 L 22,15 L 21,14 L 19,14 L 21,14 L 22,15 L 23,14 Z" fill="black" stroke="black" stroke-width="1"/><path d="M 6,11 L 6,12 L 5,13 L 5,15 L 7,15 L 8,16 L 10,16 L 11,17 L 10,18 L 6,18 L 10,18 L 12,16 L 12,14 L 13,13 L 14,13 L 15,14 L 15,17 L 13,19 L 12,19 L 10,21 L 11,20 L 12,20 L 14,18 L 19,18 L 20,19 L 20,20 L 22,20 L 23,19 L 24,19 L 25,18 L 26,18 L 27,17 L 27,16 L 28,15 L 28,14 L 27,14 L 26,13 L 25,14 L 27,14 L 28,15 L 25,18 L 24,18 L 22,20 L 21,20 L 20,19 L 20,16 L 20,17 L 19,18 L 18,18 L 17,17 L 18,16 L 17,15 L 17,13 L 18,12 L 20,12 L 21,11 L 24,11 L 21,11 L 20,12 L 7,12 Z" fill="black" stroke="black" stroke-width="1"/><path d="M 10,7 L 9,8 L 13,8 L 14,9 L 15,8 L 17,8 L 11,8 Z" fill="black" stroke="black" stroke-width="1"/><path d="M 12,0 L 11,1 L 8,1 L 7,2 L 6,2 L 5,3 L 4,3 L 1,6 L 1,11 L 0,12 L 1,13 L 0,14 L 1,15 L 1,16 L 3,18 L 3,20 L 5,22 L 5,23 L 3,25 L 2,24 L 1,24 L 0,25 L 0,27 L 2,29 L 3,29 L 5,31 L 7,31 L 8,30 L 9,30 L 10,31 L 13,31 L 11,31 L 10,30 L 8,30 L 5,27 L 4,27 L 3,26 L 5,24 L 5,21 L 3,19 L 3,18 L 2,17 L 2,16 L 0,14 L 1,13 L 1,7 L 5,3 L 6,3 L 7,2 L 8,2 L 9,1 L 11,1 L 12,0 L 17,0 L 18,1 L 21,1 L 23,3 L 22,4 L 20,4 L 19,5 L 16,5 L 15,4 L 8,4 L 7,5 L 8,4 L 15,4 L 17,6 L 18,6 L 19,7 L 22,7 L 20,7 L 19,6 L 19,5 L 20,4 L 22,4 L 23,5 L 22,4 L 23,3 L 24,3 L 25,4 L 26,4 L 27,5 L 27,6 L 25,8 L 24,8 L 26,10 L 25,9 L 25,8 L 27,6 L 29,8 L 29,11 L 31,11 L 30,11 L 29,10 L 29,8 L 28,7 L 28,6 L 27,5 L 27,4 L 26,4 L 25,3 L 24,3 L 23,2 L 22,2 L 21,1 L 18,1 L 17,0 Z" fill="black" stroke="black" stroke-width="1"/>
</svg>
